<?xml version="1.0" encoding="UTF-8"?><svg id="_レイヤー_2" xmlns="http://www.w3.org/2000/svg" xmlns:xlink="http://www.w3.org/1999/xlink" viewBox="0 0 144.51 67.25"><defs><style>.cls-1{font-family:CormorantGaramond-Bold, 'Cormorant Garamond';font-size:13.29px;font-weight:700;}.cls-2{filter:url(#drop-shadow-1);}.cls-3{fill:#342d29;}</style><filter id="drop-shadow-1" filterUnits="userSpaceOnUse"><feOffset dx="2.83" dy="1.42"/><feGaussianBlur result="blur" stdDeviation="1.42"/><feFlood flood-color="#000" flood-opacity=".75"/><feComposite in2="blur" operator="in"/><feComposite in="SourceGraphic"/></filter></defs><g id="_ロゴ_2"><g class="cls-2"><path class="cls-3" d="m12.09,39.81c-3.89-1.86-6.88-4.39-8.96-7.59-2.08-3.2-3.13-6.75-3.13-10.65,0-4.16,1.17-7.89,3.51-11.18,2.34-3.29,5.57-5.84,9.69-7.66C17.32.91,21.95,0,27.1,0c2.22,0,4.45.16,6.67.49,2.22.33,4.01.76,5.35,1.28.51.18.8.32.87.43.07.11.13.47.17,1.08l.9,9.14c0,.13-.13.22-.38.26-.25.04-.41-.02-.45-.2-.6-1.45-1.58-3.02-2.92-4.73-1.34-1.71-3.1-3.2-5.28-4.47-2.18-1.27-4.7-1.91-7.57-1.91s-5.67.77-8.13,2.3c-2.45,1.53-4.39,3.73-5.8,6.57-1.41,2.85-2.12,6.16-2.12,9.93,0,4.12.82,7.8,2.47,11.04,1.64,3.24,3.93,5.76,6.84,7.56,2.92,1.8,6.21,2.7,9.87,2.7,1.9,0,3.36-.2,4.38-.59,1.02-.39,1.76-1.16,2.22-2.3.46-1.14.69-2.83.69-5.06s-.14-3.87-.42-4.77c-.28-.9-.87-1.5-1.77-1.81-.9-.31-2.49-.46-4.76-.46-.28,0-.42-.17-.42-.53,0-.13.03-.25.1-.36.07-.11.15-.16.24-.16,3.94.22,7.13.33,9.59.33s4.82-.07,7.36-.2c.18,0,.29.15.31.46.02.31-.08.46-.31.46-.83-.04-1.42.1-1.77.43-.35.33-.57,1-.66,2-.09,1.01-.14,2.76-.14,5.26,0,1.97.08,3.38.24,4.21.16.83.24,1.36.24,1.58,0,.26-.05.44-.14.53s-.3.18-.62.26c-5.97,1.23-11.35,1.84-16.12,1.84-5.28,0-9.87-.93-13.76-2.79Z"/><path class="cls-3" d="m86.46.49c2.25.33,4.04.76,5.38,1.28.42.13.68.3.8.49.11.2.2.54.24,1.02l.9,9.14c0,.13-.12.22-.35.26-.23.04-.39-.02-.49-.2-1.3-3.59-3.15-6.34-5.56-8.25s-5.3-2.86-8.68-2.86c-3.15,0-5.96.8-8.44,2.4-2.48,1.6-4.42,3.89-5.84,6.87-1.41,2.98-2.12,6.47-2.12,10.45s.73,7.57,2.19,10.62c1.46,3.05,3.47,5.39,6.04,7.03,2.57,1.64,5.52,2.47,8.86,2.47s5.88-.82,8.06-2.47c2.18-1.64,4.24-4.35,6.18-8.12.05-.13.18-.17.42-.13.23.04.35.13.35.26l-1.04,8.15c-.09.53-.18.87-.28,1.02-.09.15-.35.32-.76.49-4.26,1.45-8.57,2.17-12.92,2.17-4.96,0-9.39-.89-13.31-2.66-3.91-1.77-6.98-4.26-9.21-7.46-2.22-3.2-3.33-6.84-3.33-10.91s1.15-7.88,3.44-11.14c2.29-3.26,5.44-5.82,9.45-7.66,4.01-1.84,8.46-2.76,13.37-2.76,2.18,0,4.39.16,6.63.49Z"/><path class="cls-3" d="m136.55.49c2.25.33,4.04.76,5.38,1.28.42.13.68.3.8.49.11.2.2.54.24,1.02l.9,9.14c0,.13-.12.22-.35.26-.23.04-.39-.02-.49-.2-1.3-3.59-3.15-6.34-5.56-8.25s-5.3-2.86-8.68-2.86c-3.15,0-5.96.8-8.44,2.4-2.48,1.6-4.42,3.89-5.84,6.87-1.41,2.98-2.12,6.47-2.12,10.45s.73,7.57,2.19,10.62c1.46,3.05,3.47,5.39,6.04,7.03,2.57,1.64,5.52,2.47,8.86,2.47s5.88-.82,8.06-2.47c2.18-1.64,4.24-4.35,6.18-8.12.05-.13.18-.17.42-.13.23.04.35.13.35.26l-1.04,8.15c-.09.53-.18.87-.28,1.02-.09.15-.35.32-.76.49-4.26,1.45-8.57,2.17-12.92,2.17-4.96,0-9.39-.89-13.31-2.66-3.91-1.77-6.98-4.26-9.2-7.46-2.22-3.2-3.34-6.84-3.34-10.91s1.15-7.88,3.44-11.14c2.29-3.26,5.44-5.82,9.45-7.66,4.01-1.84,8.46-2.76,13.37-2.76,2.18,0,4.39.16,6.63.49Z"/></g><text class="cls-1" transform="translate(33.82 63.49)"><tspan x="0" y="0">GCC Thailand</tspan></text></g></svg>