<?xml version="1.0" encoding="UTF-8"?><svg id="_レイヤー_2" xmlns="http://www.w3.org/2000/svg" xmlns:xlink="http://www.w3.org/1999/xlink" viewBox="0 0 392.45 114.46"><defs><style>.cls-1{filter:url(#drop-shadow-1);}.cls-2{fill:#332d28;}</style><filter id="drop-shadow-1" filterUnits="userSpaceOnUse"><feOffset dx="2.83" dy="1.42"/><feGaussianBlur result="blur" stdDeviation="1.42"/><feFlood flood-color="#000" flood-opacity=".75"/><feComposite in2="blur" operator="in"/><feComposite in="SourceGraphic"/></filter></defs><g id="_レイヤー_1-2"><g><path class="cls-2" d="M3.97,111.03c-1.28-.65-2.26-1.52-2.94-2.63-.68-1.11-1.03-2.34-1.03-3.7,0-1.44,.38-2.74,1.15-3.88s1.83-2.03,3.18-2.66c1.35-.63,2.87-.95,4.56-.95,.73,0,1.46,.06,2.19,.17,.73,.11,1.32,.26,1.76,.44,.17,.06,.26,.11,.29,.15,.02,.04,.04,.16,.06,.38l.3,3.17s-.04,.08-.13,.09c-.08,.02-.13,0-.15-.07-.2-.5-.52-1.05-.96-1.64-.44-.59-1.02-1.11-1.73-1.55s-1.54-.66-2.49-.66-1.86,.27-2.67,.8c-.81,.53-1.44,1.29-1.9,2.28-.46,.99-.69,2.14-.69,3.44,0,1.43,.27,2.71,.81,3.83,.54,1.13,1.29,2,2.25,2.62,.96,.62,2.04,.94,3.24,.94,.62,0,1.1-.07,1.44-.2s.58-.4,.73-.8,.23-.98,.23-1.76-.05-1.34-.14-1.65c-.09-.31-.28-.52-.58-.63-.3-.11-.82-.16-1.56-.16-.09,0-.14-.06-.14-.18,0-.05,.01-.09,.03-.13,.02-.04,.05-.06,.08-.06,1.29,.08,2.34,.11,3.15,.11s1.58-.02,2.42-.07c.06,0,.1,.05,.1,.16s-.03,.16-.1,.16c-.27-.01-.47,.03-.58,.15-.11,.11-.19,.35-.22,.7-.03,.35-.05,.96-.05,1.83,0,.68,.03,1.17,.08,1.46,.05,.29,.08,.47,.08,.55,0,.09-.02,.15-.05,.18-.03,.03-.1,.06-.21,.09-1.96,.43-3.73,.64-5.29,.64-1.73,0-3.24-.32-4.52-.97Z"/><path class="cls-2" d="M21.48,110.27c0,.3,.02,.51,.07,.64s.13,.22,.26,.27,.35,.07,.64,.07h.58c.89,0,1.66-.24,2.31-.71,.65-.47,1.08-1.11,1.3-1.92,0-.02,.02-.03,.07-.03,.02,0,.05,0,.08,.03,.03,.02,.04,.03,.04,.04-.1,1.13-.15,2.07-.15,2.82,0,.09-.02,.16-.06,.2-.04,.04-.1,.06-.2,.06h-8.08s-.03-.03-.03-.1,.01-.1,.03-.1c.36,0,.63-.03,.8-.09,.16-.06,.28-.17,.34-.33,.06-.16,.09-.42,.09-.76v-7.92c0-.34-.03-.59-.09-.75-.06-.16-.18-.27-.35-.33-.17-.06-.43-.09-.79-.09-.02,0-.03-.03-.03-.1s.01-.1,.03-.1l.87,.02c.52,.02,.96,.03,1.3,.03s.78-.01,1.3-.03l.87-.02s.05,.03,.05,.1-.02,.1-.05,.1c-.35,0-.62,.03-.79,.09-.17,.06-.29,.18-.34,.34-.06,.17-.09,.42-.09,.76v7.83Z"/><path class="cls-2" d="M32.3,111.18c-.83-.5-1.47-1.17-1.92-2.02-.45-.85-.68-1.78-.68-2.78,0-1.17,.3-2.18,.89-3.02s1.35-1.47,2.28-1.89c.93-.42,1.88-.63,2.85-.63,1.08,0,2.03,.25,2.86,.76,.82,.51,1.45,1.18,1.89,2.01,.44,.83,.66,1.72,.66,2.65,0,1.04-.27,1.99-.82,2.86-.55,.87-1.28,1.55-2.2,2.05s-1.91,.75-2.99,.75-2-.25-2.83-.74Zm5.12-.24c.51-.37,.9-.91,1.19-1.63,.29-.71,.43-1.57,.43-2.56,0-1.05-.16-1.99-.48-2.81-.32-.83-.78-1.47-1.39-1.94-.61-.47-1.31-.7-2.12-.7-1.04,0-1.84,.39-2.39,1.17-.56,.78-.84,1.87-.84,3.28,0,1.11,.17,2.1,.5,2.97,.34,.87,.8,1.55,1.39,2.04,.59,.49,1.25,.74,1.99,.74,.64,0,1.21-.19,1.72-.56Z"/><path class="cls-2" d="M52.13,106.68c.56,.52,.85,1.17,.85,1.95,0,.59-.17,1.13-.51,1.61-.34,.48-.82,.86-1.42,1.14-.61,.28-1.28,.42-2.02,.42-.32,0-.68-.02-1.09-.05-.16-.01-.36-.02-.59-.03-.23-.01-.49-.02-.78-.02l-1.25,.02c-.23,.01-.54,.02-.92,.02-.03,0-.05-.03-.05-.1s.02-.1,.05-.1c.33,0,.58-.03,.75-.09,.17-.06,.29-.18,.37-.34,.07-.17,.11-.41,.11-.74v-7.92c0-.48-.08-.8-.24-.95s-.48-.23-.98-.23c-.02,0-.03-.03-.03-.1s.01-.1,.03-.1l.91,.02c.53,.02,.94,.03,1.25,.03s.65-.02,.99-.05c.11-.01,.28-.02,.51-.03,.23-.01,.43-.02,.6-.02,1.04,0,1.84,.19,2.41,.56,.57,.38,.86,.92,.86,1.64,0,.55-.18,1.04-.54,1.49s-.88,.79-1.55,1.04c.96,.11,1.72,.43,2.28,.96Zm-4.41-5.09c-.13,.15-.19,.44-.19,.86v3.25l.68,.02c.59,0,1.05-.22,1.37-.67,.32-.44,.48-1.01,.48-1.71,0-.65-.14-1.14-.43-1.48-.29-.34-.7-.5-1.23-.5-.33,0-.56,.08-.68,.23Zm3.25,7.45c0-.88-.21-1.57-.63-2.09s-1.06-.77-1.92-.77c-.33,0-.63,.01-.89,.03v4.12c0,.38,.08,.64,.22,.8,.15,.15,.47,.23,.97,.23,1.49,0,2.24-.78,2.24-2.33Z"/><path class="cls-2" d="M67.93,111.62c0,.07-.03,.1-.09,.1-.23,0-.58-.01-1.06-.03-.5-.02-.86-.03-1.08-.03-.28,0-.63,.01-1.04,.03-.39,.02-.7,.03-.92,.03-.05,0-.07-.03-.07-.1s.02-.1,.07-.1c.3,0,.51-.03,.64-.09s.2-.17,.2-.33c0-.19-.11-.52-.34-.98l-1.16-2.31h-4.21l-.67,1.49c-.15,.33-.22,.64-.22,.92,0,.41,.14,.73,.43,.96s.68,.34,1.17,.34c.06,0,.08,.03,.08,.1s-.03,.1-.08,.1c-.2,0-.5-.01-.89-.03-.43-.02-.81-.03-1.13-.03s-.68,.01-1.11,.03c-.39,.02-.7,.03-.94,.03-.05,0-.07-.03-.07-.1s.02-.1,.07-.1c.32,0,.59-.06,.8-.2,.22-.13,.43-.37,.65-.7s.47-.84,.77-1.5l3.71-8.16s.08-.05,.15-.05c.09,0,.14,.02,.15,.05l4.28,8.42c.4,.81,.73,1.37,.99,1.68,.26,.31,.54,.46,.82,.46,.06,0,.09,.03,.09,.1Zm-8.84-4.29h3.73l-1.97-3.9-1.76,3.9Z"/><path class="cls-2" d="M73.18,110.27c0,.3,.02,.51,.07,.64s.13,.22,.26,.27,.35,.07,.64,.07h.58c.89,0,1.66-.24,2.31-.71,.65-.47,1.08-1.11,1.3-1.92,0-.02,.02-.03,.07-.03,.02,0,.05,0,.08,.03,.03,.02,.04,.03,.04,.04-.1,1.13-.15,2.07-.15,2.82,0,.09-.02,.16-.06,.2-.04,.04-.1,.06-.2,.06h-8.08s-.03-.03-.03-.1,.01-.1,.03-.1c.36,0,.63-.03,.8-.09,.16-.06,.28-.17,.34-.33,.06-.16,.09-.42,.09-.76v-7.92c0-.34-.03-.59-.09-.75-.06-.16-.18-.27-.35-.33-.17-.06-.43-.09-.79-.09-.02,0-.03-.03-.03-.1s.01-.1,.03-.1l.87,.02c.52,.02,.96,.03,1.3,.03s.78-.01,1.3-.03l.87-.02s.05,.03,.05,.1-.02,.1-.05,.1c-.35,0-.62,.03-.79,.09-.17,.06-.29,.18-.34,.34-.06,.17-.09,.42-.09,.76v7.83Z"/><path class="cls-2" d="M100.1,97.39c.74,.11,1.33,.26,1.77,.44,.14,.05,.23,.1,.26,.17,.04,.07,.06,.19,.08,.35l.3,3.17s-.04,.08-.11,.09c-.08,.02-.13,0-.16-.07-.43-1.25-1.04-2.2-1.83-2.86-.79-.66-1.74-.99-2.85-.99-1.04,0-1.96,.28-2.77,.83-.81,.56-1.45,1.35-1.92,2.38-.46,1.03-.69,2.24-.69,3.63s.24,2.63,.72,3.68c.48,1.06,1.14,1.87,1.98,2.44,.84,.57,1.81,.85,2.91,.85s1.93-.28,2.65-.85c.71-.57,1.39-1.51,2.03-2.82,.01-.05,.06-.06,.14-.05,.08,.01,.11,.05,.11,.09l-.34,2.83c-.03,.18-.06,.3-.09,.35-.03,.05-.11,.11-.25,.17-1.4,.5-2.81,.75-4.24,.75-1.63,0-3.08-.31-4.37-.92-1.28-.62-2.29-1.48-3.02-2.59-.73-1.11-1.09-2.37-1.09-3.79s.38-2.73,1.13-3.87c.75-1.13,1.79-2.02,3.1-2.66s2.78-.96,4.39-.96c.71,0,1.44,.06,2.18,.17Z"/><path class="cls-2" d="M109.43,111.18c-.83-.5-1.47-1.17-1.92-2.02-.45-.85-.68-1.78-.68-2.78,0-1.17,.3-2.18,.89-3.02s1.35-1.47,2.28-1.89c.93-.42,1.88-.63,2.85-.63,1.08,0,2.03,.25,2.86,.76,.82,.51,1.45,1.18,1.89,2.01,.44,.83,.66,1.72,.66,2.65,0,1.04-.27,1.99-.82,2.86-.55,.87-1.28,1.55-2.2,2.05s-1.91,.75-2.99,.75-2-.25-2.83-.74Zm5.12-.24c.51-.37,.9-.91,1.19-1.63,.29-.71,.43-1.57,.43-2.56,0-1.05-.16-1.99-.48-2.81-.32-.83-.78-1.47-1.39-1.94-.61-.47-1.31-.7-2.12-.7-1.04,0-1.84,.39-2.39,1.17-.56,.78-.84,1.87-.84,3.28,0,1.11,.17,2.1,.5,2.97,.34,.87,.8,1.55,1.39,2.04,.59,.49,1.25,.74,1.99,.74,.64,0,1.21-.19,1.72-.56Z"/><path class="cls-2" d="M132.96,111.62c0,.07-.01,.1-.03,.1h-3.04c-.25,0-.72-.45-1.4-1.36-.68-.91-1.51-2.18-2.48-3.81-.09,.01-.22,.02-.39,.02-.44,0-.76,0-.94-.02v3.78c0,.35,.03,.61,.09,.77,.06,.16,.17,.27,.33,.33,.17,.06,.43,.09,.8,.09,.02,0,.03,.03,.03,.1s-.01,.1-.03,.1c-.38,0-.67,0-.89-.02l-1.3-.02-1.25,.02c-.23,.01-.54,.02-.92,.02-.03,0-.05-.03-.05-.1s.02-.1,.05-.1c.36,0,.63-.03,.79-.09s.28-.17,.34-.33c.06-.16,.09-.42,.09-.76v-7.92c0-.34-.03-.59-.09-.75-.06-.16-.17-.27-.34-.33-.17-.06-.43-.09-.79-.09-.02,0-.03-.03-.03-.1s.01-.1,.03-.1l.91,.02c.53,.02,.94,.03,1.25,.03,.39,0,.79-.02,1.21-.05,.15-.01,.33-.02,.56-.03,.22-.01,.47-.02,.74-.02,1.04,0,1.84,.19,2.41,.57,.57,.38,.86,.92,.86,1.6,0,.63-.17,1.19-.51,1.7s-.8,.91-1.37,1.22c.91,1.37,1.68,2.44,2.29,3.22,.62,.78,1.16,1.34,1.64,1.69s.95,.53,1.4,.53c.02,0,.03,.03,.03,.1Zm-7.3-5.47c.66,0,1.14-.19,1.43-.56s.44-.97,.44-1.79c0-.94-.14-1.58-.41-1.93s-.67-.53-1.18-.53c-.46,0-.78,.09-.98,.26s-.29,.46-.29,.86v3.63c.27,.05,.61,.07,.99,.07Z"/><path class="cls-2" d="M138.28,111.06c.08,.16,.23,.28,.45,.35,.22,.07,.58,.1,1.07,.1,.03,0,.05,.03,.05,.1s-.02,.1-.05,.1c-.47,0-.83,0-1.09-.02l-1.49-.02-1.25,.02c-.23,.01-.54,.02-.92,.02-.03,0-.05-.03-.05-.1s.02-.1,.05-.1c.36,0,.63-.03,.8-.09,.16-.06,.28-.17,.33-.33,.06-.16,.09-.42,.09-.76v-7.92c0-.34-.03-.59-.09-.75-.06-.16-.17-.27-.34-.33-.17-.06-.43-.09-.79-.09-.03,0-.05-.03-.05-.1s.02-.1,.05-.1l.91,.02c.52,.02,.94,.03,1.25,.03,.27,0,.6-.02,.98-.05,.15-.01,.34-.02,.56-.03,.23-.01,.49-.02,.79-.02,1.16,0,2.08,.24,2.75,.73s1.01,1.23,1.01,2.25c0,.71-.18,1.31-.55,1.8-.37,.49-.84,.86-1.41,1.11-.58,.25-1.17,.38-1.77,.38-.31,0-.58-.03-.8-.09-.02,0-.03-.03-.03-.09,0-.03,0-.07,.03-.1s.04-.05,.06-.03c.17,.05,.36,.07,.58,.07,.52,0,.96-.25,1.31-.74,.35-.49,.52-1.19,.52-2.09s-.19-1.6-.57-2.09c-.38-.49-.94-.74-1.67-.74-.32,0-.54,.07-.65,.22-.11,.15-.17,.44-.17,.87v7.82c0,.37,.04,.63,.12,.8Z"/><path class="cls-2" d="M149.07,111.18c-.83-.5-1.47-1.17-1.92-2.02-.45-.85-.68-1.78-.68-2.78,0-1.17,.3-2.18,.89-3.02s1.35-1.47,2.28-1.89c.93-.42,1.88-.63,2.85-.63,1.08,0,2.03,.25,2.86,.76,.82,.51,1.45,1.18,1.89,2.01,.44,.83,.66,1.72,.66,2.65,0,1.04-.27,1.99-.82,2.86-.55,.87-1.28,1.55-2.2,2.05s-1.91,.75-2.99,.75-2-.25-2.83-.74Zm5.12-.24c.51-.37,.9-.91,1.19-1.63,.29-.71,.43-1.57,.43-2.56,0-1.05-.16-1.99-.48-2.81-.32-.83-.78-1.47-1.39-1.94-.61-.47-1.31-.7-2.12-.7-1.04,0-1.84,.39-2.39,1.17-.56,.78-.84,1.87-.84,3.28,0,1.11,.17,2.1,.5,2.97,.34,.87,.8,1.55,1.39,2.04,.59,.49,1.25,.74,1.99,.74,.64,0,1.21-.19,1.72-.56Z"/><path class="cls-2" d="M172.6,111.62c0,.07-.01,.1-.03,.1h-3.04c-.25,0-.72-.45-1.4-1.36-.68-.91-1.51-2.18-2.48-3.81-.09,.01-.22,.02-.39,.02-.44,0-.76,0-.94-.02v3.78c0,.35,.03,.61,.09,.77,.06,.16,.17,.27,.33,.33,.17,.06,.43,.09,.8,.09,.02,0,.03,.03,.03,.1s-.01,.1-.03,.1c-.38,0-.67,0-.89-.02l-1.3-.02-1.25,.02c-.23,.01-.54,.02-.92,.02-.03,0-.05-.03-.05-.1s.02-.1,.05-.1c.36,0,.63-.03,.79-.09s.28-.17,.34-.33c.06-.16,.09-.42,.09-.76v-7.92c0-.34-.03-.59-.09-.75-.06-.16-.17-.27-.34-.33-.17-.06-.43-.09-.79-.09-.02,0-.03-.03-.03-.1s.01-.1,.03-.1l.91,.02c.53,.02,.94,.03,1.25,.03,.39,0,.79-.02,1.21-.05,.15-.01,.33-.02,.56-.03,.22-.01,.47-.02,.74-.02,1.04,0,1.84,.19,2.41,.57,.57,.38,.86,.92,.86,1.6,0,.63-.17,1.19-.51,1.7s-.8,.91-1.37,1.22c.91,1.37,1.68,2.44,2.29,3.22,.62,.78,1.16,1.34,1.64,1.69s.95,.53,1.4,.53c.02,0,.03,.03,.03,.1Zm-7.3-5.47c.66,0,1.14-.19,1.43-.56s.44-.97,.44-1.79c0-.94-.14-1.58-.41-1.93s-.67-.53-1.18-.53c-.46,0-.78,.09-.98,.26s-.29,.46-.29,.86v3.63c.27,.05,.61,.07,.99,.07Z"/><path class="cls-2" d="M186.46,111.62c0,.07-.03,.1-.09,.1-.23,0-.58-.01-1.06-.03-.5-.02-.86-.03-1.08-.03-.28,0-.63,.01-1.04,.03-.39,.02-.7,.03-.92,.03-.05,0-.07-.03-.07-.1s.02-.1,.07-.1c.3,0,.51-.03,.64-.09s.2-.17,.2-.33c0-.19-.11-.52-.34-.98l-1.16-2.31h-4.21l-.67,1.49c-.15,.33-.22,.64-.22,.92,0,.41,.14,.73,.43,.96s.68,.34,1.17,.34c.06,0,.08,.03,.08,.1s-.03,.1-.08,.1c-.2,0-.5-.01-.89-.03-.43-.02-.81-.03-1.13-.03s-.68,.01-1.11,.03c-.39,.02-.7,.03-.94,.03-.05,0-.07-.03-.07-.1s.02-.1,.07-.1c.32,0,.59-.06,.8-.2,.22-.13,.43-.37,.65-.7s.47-.84,.77-1.5l3.71-8.16s.08-.05,.15-.05c.09,0,.14,.02,.15,.05l4.28,8.42c.4,.81,.73,1.37,.99,1.68,.26,.31,.54,.46,.82,.46,.06,0,.09,.03,.09,.1Zm-8.84-4.29h3.73l-1.97-3.9-1.76,3.9Z"/><path class="cls-2" d="M187.74,104.08s-.05,.05-.1,.04c-.06,0-.08-.03-.08-.06,.05-.46,.1-1.05,.15-1.77,.06-.72,.09-1.27,.09-1.63,0-.06,.03-.09,.09-.09s.09,.03,.09,.09c0,.25,.33,.38,.98,.38,.98,.03,2.13,.05,3.44,.05,.67,0,1.39-.01,2.14-.03l1.16-.02c.43,0,.75-.03,.95-.09,.2-.06,.33-.17,.38-.34,0-.05,.05-.07,.11-.07s.09,.02,.09,.07c-.03,.34-.07,.89-.11,1.64-.04,.75-.06,1.36-.06,1.81,0,.03-.03,.05-.09,.05-.06,0-.09-.02-.1-.05-.17-.88-.49-1.54-.96-1.98-.47-.44-1.04-.66-1.73-.66-.33,0-.55,.07-.66,.21-.11,.14-.16,.41-.16,.81v7.89c0,.35,.03,.61,.1,.77,.07,.16,.2,.27,.39,.33s.5,.09,.92,.09c.03,0,.05,.03,.05,.1s-.02,.1-.05,.1c-.41,0-.74,0-.98-.02l-1.42-.02-1.39,.02c-.24,.01-.57,.02-.99,.02-.03,0-.05-.03-.05-.1s.02-.1,.05-.1c.41,0,.71-.03,.91-.09s.34-.17,.41-.33c.07-.16,.11-.42,.11-.76v-7.92c0-.39-.05-.65-.15-.79-.1-.14-.31-.21-.63-.21-1.36,0-2.33,.88-2.93,2.65Z"/><path class="cls-2" d="M208.13,108.97s.07,0,.09,.03,.04,.03,.04,.04c-.11,.89-.17,1.7-.17,2.43,0,.09-.02,.16-.05,.2-.03,.04-.1,.06-.2,.06h-7.56s-.05-.03-.05-.1,.02-.1,.05-.1c.37,0,.63-.03,.79-.09s.28-.17,.33-.33c.06-.16,.08-.42,.08-.76v-7.92c0-.34-.03-.59-.08-.75-.06-.16-.17-.27-.34-.33-.17-.06-.43-.09-.79-.09-.03,0-.05-.03-.05-.1s.02-.1,.05-.1h7.25c.12,0,.17,.05,.17,.15l.03,2.28s-.03,.04-.09,.05c-.06,.01-.1,0-.11-.03-.18-.66-.49-1.15-.92-1.47-.43-.32-1-.48-1.71-.48h-.51c-.34,0-.59,.07-.75,.22s-.24,.38-.24,.68v3.49h1.42c.66,0,1.17-.11,1.52-.34s.53-.55,.53-.96c0-.03,.03-.05,.09-.05s.09,.02,.09,.05l-.02,1.54,.02,.82c.02,.39,.03,.7,.03,.92,0,.02-.03,.03-.1,.03s-.1-.01-.1-.03c0-.47-.18-.84-.54-1.1s-.88-.4-1.55-.4h-1.4v3.87c0,.33,.06,.58,.19,.74,.13,.16,.33,.24,.6,.24h.57c.89,0,1.6-.18,2.14-.55,.54-.36,.93-.93,1.18-1.69,0-.02,.02-.03,.07-.03Z"/><path class="cls-2" d="M230.27,97.39c.74,.11,1.33,.26,1.77,.44,.14,.05,.23,.1,.26,.17,.04,.07,.06,.19,.08,.35l.3,3.17s-.04,.08-.11,.09c-.08,.02-.13,0-.16-.07-.43-1.25-1.04-2.2-1.83-2.86-.79-.66-1.74-.99-2.85-.99-1.04,0-1.96,.28-2.77,.83-.82,.56-1.45,1.35-1.92,2.38-.46,1.03-.69,2.24-.69,3.63s.24,2.63,.72,3.68c.48,1.06,1.14,1.87,1.99,2.44,.84,.57,1.81,.85,2.91,.85s1.93-.28,2.65-.85c.71-.57,1.39-1.51,2.03-2.82,.01-.05,.06-.06,.13-.05,.08,.01,.12,.05,.12,.09l-.34,2.83c-.03,.18-.06,.3-.09,.35s-.11,.11-.25,.17c-1.4,.5-2.81,.75-4.24,.75-1.63,0-3.08-.31-4.37-.92-1.29-.62-2.29-1.48-3.02-2.59-.73-1.11-1.09-2.37-1.09-3.79s.38-2.73,1.13-3.87c.75-1.13,1.79-2.02,3.1-2.66,1.32-.64,2.78-.96,4.39-.96,.72,0,1.44,.06,2.18,.17Z"/><path class="cls-2" d="M239.59,111.18c-.83-.5-1.46-1.17-1.91-2.02-.45-.85-.68-1.78-.68-2.78,0-1.17,.3-2.18,.89-3.02,.59-.84,1.35-1.47,2.28-1.89,.93-.42,1.88-.63,2.85-.63,1.08,0,2.04,.25,2.86,.76,.82,.51,1.45,1.18,1.89,2.01,.44,.83,.66,1.72,.66,2.65,0,1.04-.27,1.99-.82,2.86-.55,.87-1.28,1.55-2.2,2.05-.92,.5-1.91,.75-2.98,.75s-2-.25-2.83-.74Zm5.12-.24c.51-.37,.9-.91,1.19-1.63,.28-.71,.43-1.57,.43-2.56,0-1.05-.16-1.99-.48-2.81-.32-.83-.78-1.47-1.39-1.94-.61-.47-1.31-.7-2.12-.7-1.04,0-1.84,.39-2.39,1.17-.56,.78-.84,1.87-.84,3.28,0,1.11,.17,2.1,.5,2.97,.33,.87,.8,1.55,1.39,2.04s1.25,.74,1.99,.74c.64,0,1.21-.19,1.72-.56Z"/><path class="cls-2" d="M263.38,101.13c0,.07-.01,.1-.03,.1-.46,0-.82,.18-1.08,.54-.26,.36-.39,.84-.39,1.44v8.76s-.03,.06-.08,.07c-.05,.01-.09,0-.11-.02l-8.02-9.14v6.65c0,.61,.13,1.08,.38,1.44s.6,.53,1.04,.53c.02,0,.03,.03,.03,.1s-.01,.1-.03,.1c-.32,0-.57,0-.74-.02l-.93-.02-1.06,.02c-.19,.01-.47,.02-.84,.02-.03,0-.05-.03-.05-.1s.02-.1,.05-.1c.5,0,.9-.18,1.19-.53s.44-.83,.44-1.44v-7.24c-.38-.41-.7-.69-.97-.85-.27-.15-.54-.23-.83-.23-.03,0-.03-.03-.03-.1s0-.1,.03-.1l.72,.02c.15,.01,.37,.02,.65,.02l1.3-.02c.16-.01,.35-.02,.58-.02,.09,0,.16,.02,.2,.07,.05,.05,.13,.14,.24,.29,.19,.26,.33,.44,.41,.53l5.92,6.83v-5.53c0-.62-.13-1.1-.38-1.45-.25-.35-.6-.53-1.04-.53-.03,0-.03-.03-.03-.1s0-.1,.03-.1l.74,.02c.37,.02,.67,.03,.92,.03,.23,0,.55-.01,.96-.03l.77-.02s.03,.03,.03,.1Z"/><path class="cls-2" d="M268.55,103.85c.21,.32,.47,.6,.78,.84s.73,.53,1.25,.87c.57,.37,1.03,.68,1.37,.96,.34,.27,.63,.61,.87,1,.24,.39,.36,.85,.36,1.36,0,.59-.16,1.12-.48,1.58-.32,.46-.76,.82-1.33,1.08-.57,.26-1.19,.39-1.89,.39-.51,0-1.05-.07-1.61-.21s-.94-.3-1.13-.47c-.06-.05-.1-.09-.13-.13-.03-.04-.04-.1-.04-.2l-.05-2.72v-.02s.03-.07,.08-.08c.06,0,.09,.01,.1,.06,.34,.7,.64,1.26,.9,1.69,.26,.43,.58,.82,.98,1.15s.84,.5,1.34,.5c.46,0,.84-.12,1.13-.37,.3-.24,.45-.66,.45-1.26,0-.5-.11-.94-.33-1.32-.22-.38-.49-.7-.81-.96-.32-.26-.76-.58-1.32-.94-.55-.35-.97-.66-1.27-.91-.3-.25-.56-.55-.78-.91-.22-.35-.33-.77-.33-1.25,0-.6,.17-1.12,.52-1.53,.35-.42,.79-.72,1.34-.92s1.12-.3,1.73-.3c.4,0,.8,.04,1.22,.11,.41,.07,.74,.16,.99,.27,.1,.05,.17,.09,.21,.15,.03,.05,.05,.12,.05,.2v2.51s-.03,.06-.08,.08c-.06,.02-.09,0-.1-.03l-.14-.33c-.28-.72-.62-1.33-1-1.83-.38-.5-.92-.75-1.6-.75-.46,0-.83,.13-1.12,.39-.29,.26-.43,.64-.43,1.15,0,.41,.11,.78,.32,1.09Z"/><path class="cls-2" d="M285.13,101.77c-.28-.35-.67-.53-1.17-.53-.03,0-.03-.03-.03-.1s0-.1,.03-.1l.82,.02c.43,.02,.78,.03,1.04,.03,.22,0,.53-.01,.94-.03l.79-.02s.03,.03,.03,.1,0,.1-.03,.1c-.44,0-.79,.18-1.04,.53-.25,.35-.38,.84-.38,1.45v4.76c0,.8-.18,1.5-.53,2.1s-.85,1.07-1.5,1.39c-.64,.32-1.39,.49-2.23,.49s-1.59-.16-2.24-.48-1.16-.78-1.53-1.39c-.37-.61-.55-1.33-.55-2.15v-5.53c0-.34-.03-.59-.09-.75-.07-.16-.18-.27-.34-.33s-.43-.09-.78-.09c-.03,0-.05-.03-.05-.1s.02-.1,.05-.1l.91,.02c.53,.02,.94,.03,1.25,.03,.34,0,.78-.01,1.3-.03l.87-.02s.05,.03,.05,.1-.02,.1-.05,.1c-.35,0-.61,.03-.78,.1-.17,.07-.28,.19-.34,.35-.06,.17-.09,.42-.09,.76v4.89c0,1.36,.27,2.36,.8,3.01,.53,.65,1.29,.98,2.27,.98s1.69-.29,2.22-.86c.54-.58,.8-1.4,.8-2.47v-4.77c0-.62-.14-1.1-.42-1.45Z"/><path class="cls-2" d="M293.16,110.27c0,.3,.03,.51,.07,.64,.05,.13,.13,.22,.27,.27s.34,.07,.64,.07h.58c.89,0,1.66-.24,2.31-.71,.65-.47,1.09-1.11,1.3-1.92,0-.02,.02-.03,.07-.03,.02,0,.05,0,.08,.03,.03,.02,.04,.03,.04,.04-.1,1.13-.15,2.07-.15,2.82,0,.09-.02,.16-.06,.2-.04,.04-.11,.06-.2,.06h-8.08s-.03-.03-.03-.1,.01-.1,.03-.1c.37,0,.63-.03,.8-.09,.16-.06,.28-.17,.34-.33,.06-.16,.09-.42,.09-.76v-7.92c0-.34-.03-.59-.09-.75-.06-.16-.18-.27-.35-.33s-.43-.09-.79-.09c-.02,0-.03-.03-.03-.1s.01-.1,.03-.1l.87,.02c.53,.02,.96,.03,1.3,.03s.78-.01,1.3-.03l.87-.02s.05,.03,.05,.1-.02,.1-.05,.1c-.35,0-.62,.03-.79,.09s-.28,.18-.34,.34c-.06,.17-.09,.42-.09,.76v7.83Z"/><path class="cls-2" d="M301.03,104.08s-.04,.05-.1,.04c-.06,0-.08-.03-.08-.06,.05-.46,.1-1.05,.15-1.77s.09-1.27,.09-1.63c0-.06,.03-.09,.09-.09s.09,.03,.09,.09c0,.25,.33,.38,.98,.38,.98,.03,2.13,.05,3.44,.05,.67,0,1.39-.01,2.14-.03l1.16-.02c.43,0,.75-.03,.95-.09,.2-.06,.33-.17,.38-.34,.01-.05,.05-.07,.11-.07s.09,.02,.09,.07c-.03,.34-.07,.89-.11,1.64-.04,.75-.06,1.36-.06,1.81,0,.03-.03,.05-.08,.05s-.09-.02-.1-.05c-.17-.88-.49-1.54-.96-1.98-.47-.44-1.04-.66-1.73-.66-.33,0-.55,.07-.66,.21-.11,.14-.16,.41-.16,.81v7.89c0,.35,.03,.61,.1,.77,.07,.16,.2,.27,.39,.33s.5,.09,.93,.09c.03,0,.05,.03,.05,.1s-.02,.1-.05,.1c-.41,0-.74,0-.98-.02l-1.42-.02-1.39,.02c-.24,.01-.57,.02-.99,.02-.03,0-.05-.03-.05-.1s.02-.1,.05-.1c.41,0,.71-.03,.91-.09s.34-.17,.41-.33c.07-.16,.11-.42,.11-.76v-7.92c0-.39-.05-.65-.15-.79s-.31-.21-.63-.21c-1.36,0-2.33,.88-2.93,2.65Z"/><path class="cls-2" d="M316.84,111.11c.06,.16,.17,.27,.33,.33s.43,.09,.79,.09c.03,0,.05,.03,.05,.1s-.02,.1-.05,.1c-.38,0-.67,0-.89-.02l-1.3-.02-1.27,.02c-.23,.01-.53,.02-.92,.02-.02,0-.03-.03-.03-.1s.01-.1,.03-.1c.37,0,.63-.03,.8-.09s.29-.17,.35-.33c.06-.16,.09-.42,.09-.76v-7.92c0-.34-.03-.59-.09-.75-.06-.16-.18-.27-.35-.33s-.44-.09-.8-.09c-.02,0-.03-.03-.03-.1s.01-.1,.03-.1l.92,.02c.53,.02,.95,.03,1.27,.03,.35,0,.79-.01,1.32-.03l.87-.02s.05,.03,.05,.1-.02,.1-.05,.1c-.35,0-.62,.03-.79,.1-.17,.07-.29,.19-.34,.35-.06,.17-.08,.42-.08,.76v7.89c0,.35,.03,.61,.08,.77Z"/><path class="cls-2" d="M332.83,101.13c0,.07,0,.1-.03,.1-.46,0-.81,.18-1.08,.54-.26,.36-.39,.84-.39,1.44v8.76s-.03,.06-.08,.07c-.05,.01-.09,0-.11-.02l-8.03-9.14v6.65c0,.61,.13,1.08,.38,1.44s.6,.53,1.04,.53c.03,0,.03,.03,.03,.1s0,.1-.03,.1c-.32,0-.56,0-.74-.02l-.92-.02-1.06,.02c-.19,.01-.48,.02-.84,.02-.03,0-.05-.03-.05-.1s.02-.1,.05-.1c.5,0,.9-.18,1.19-.53s.43-.83,.43-1.44v-7.24c-.38-.41-.7-.69-.97-.85-.27-.15-.54-.23-.83-.23-.02,0-.03-.03-.03-.1s.01-.1,.03-.1l.72,.02c.15,.01,.36,.02,.65,.02l1.3-.02c.16-.01,.35-.02,.58-.02,.09,0,.16,.02,.21,.07,.04,.05,.13,.14,.24,.29,.19,.26,.33,.44,.41,.53l5.92,6.83v-5.53c0-.62-.13-1.1-.38-1.45s-.6-.53-1.04-.53c-.02,0-.03-.03-.03-.1s.01-.1,.03-.1l.74,.02c.36,.02,.67,.03,.92,.03,.23,0,.55-.01,.96-.03l.77-.02s.03,.03,.03,.1Z"/><path class="cls-2" d="M338.53,111.2c-.96-.48-1.7-1.14-2.21-1.98s-.77-1.76-.77-2.77c0-1.08,.29-2.05,.86-2.91,.58-.86,1.37-1.52,2.39-1.99,1.02-.47,2.16-.71,3.42-.71,.55,0,1.09,.04,1.65,.13,.55,.09,.99,.2,1.32,.33,.13,.05,.2,.08,.21,.11,.02,.03,.03,.12,.04,.28l.22,2.38s-.03,.06-.09,.07c-.06,.01-.1,0-.11-.05-.15-.38-.39-.79-.72-1.23-.33-.44-.76-.83-1.3-1.16-.54-.33-1.16-.5-1.86-.5s-1.4,.2-2,.6c-.61,.4-1.08,.97-1.43,1.71-.35,.74-.52,1.6-.52,2.58,0,1.07,.2,2.03,.61,2.87,.41,.84,.97,1.5,1.69,1.97s1.53,.7,2.43,.7c.47,0,.83-.05,1.08-.15,.25-.1,.43-.3,.55-.6,.12-.3,.17-.74,.17-1.32s-.03-1.01-.1-1.24-.21-.39-.43-.47c-.22-.08-.61-.12-1.17-.12-.07,0-.1-.05-.1-.14,0-.03,0-.06,.03-.09,.02-.03,.04-.04,.06-.04,.97,.06,1.75,.09,2.36,.09s1.19-.02,1.81-.05c.05,0,.07,.04,.08,.12s-.02,.12-.08,.12c-.2-.01-.35,.03-.43,.11-.09,.09-.14,.26-.16,.52-.03,.26-.03,.72-.03,1.37,0,.51,.02,.88,.06,1.09,.04,.22,.06,.35,.06,.41,0,.07-.01,.11-.03,.14-.02,.02-.08,.05-.15,.07-1.47,.32-2.8,.48-3.97,.48-1.3,0-2.43-.24-3.39-.73Z"/><path class="cls-2" d="M351.59,110.37c.22,.31,.33,.75,.33,1.32,0,.51-.11,.99-.34,1.43-.23,.44-.57,.88-1.03,1.33-.01,.01-.03,.02-.05,.02-.03,0-.06-.02-.08-.05s-.02-.06,0-.09c.56-.57,.84-1.24,.84-2.02,0-.32-.06-.55-.17-.7-.1,.17-.31,.26-.63,.26-.27,0-.49-.09-.66-.27-.16-.18-.25-.41-.25-.69,0-.31,.1-.55,.3-.73s.47-.27,.81-.27c.4,0,.71,.15,.93,.46Z"/><path class="cls-2" d="M358.41,111.11c.06,.16,.17,.27,.33,.33s.43,.09,.79,.09c.03,0,.05,.03,.05,.1s-.02,.1-.05,.1c-.38,0-.67,0-.89-.02l-1.3-.02-1.27,.02c-.23,.01-.53,.02-.92,.02-.02,0-.03-.03-.03-.1s.01-.1,.03-.1c.37,0,.63-.03,.8-.09s.29-.17,.35-.33c.06-.16,.09-.42,.09-.76v-7.92c0-.34-.03-.59-.09-.75-.06-.16-.18-.27-.35-.33s-.44-.09-.8-.09c-.02,0-.03-.03-.03-.1s.01-.1,.03-.1l.92,.02c.53,.02,.95,.03,1.27,.03,.35,0,.79-.01,1.32-.03l.87-.02s.05,.03,.05,.1-.02,.1-.05,.1c-.35,0-.62,.03-.79,.1-.17,.07-.29,.19-.34,.35-.06,.17-.08,.42-.08,.76v7.89c0,.35,.03,.61,.08,.77Z"/><path class="cls-2" d="M374.4,101.13c0,.07,0,.1-.03,.1-.46,0-.81,.18-1.08,.54-.26,.36-.39,.84-.39,1.44v8.76s-.03,.06-.08,.07c-.05,.01-.09,0-.11-.02l-8.03-9.14v6.65c0,.61,.13,1.08,.38,1.44s.6,.53,1.04,.53c.03,0,.03,.03,.03,.1s0,.1-.03,.1c-.32,0-.56,0-.74-.02l-.92-.02-1.06,.02c-.19,.01-.48,.02-.84,.02-.03,0-.05-.03-.05-.1s.02-.1,.05-.1c.5,0,.9-.18,1.19-.53s.43-.83,.43-1.44v-7.24c-.38-.41-.7-.69-.97-.85-.27-.15-.54-.23-.83-.23-.02,0-.03-.03-.03-.1s.01-.1,.03-.1l.72,.02c.15,.01,.36,.02,.65,.02l1.3-.02c.16-.01,.35-.02,.58-.02,.09,0,.16,.02,.21,.07,.04,.05,.13,.14,.24,.29,.19,.26,.33,.44,.41,.53l5.92,6.83v-5.53c0-.62-.13-1.1-.38-1.45s-.6-.53-1.04-.53c-.02,0-.03-.03-.03-.1s.01-.1,.03-.1l.74,.02c.36,.02,.67,.03,.92,.03,.23,0,.55-.01,.96-.03l.77-.02s.03,.03,.03,.1Z"/><path class="cls-2" d="M385.22,100.97c.55,.09,.99,.2,1.33,.33,.1,.03,.17,.08,.19,.13s.05,.14,.06,.27l.22,2.38s-.03,.06-.09,.07c-.06,.01-.1,0-.12-.05-.32-.94-.78-1.65-1.37-2.15-.59-.5-1.3-.74-2.14-.74-.78,0-1.47,.21-2.08,.62-.61,.42-1.09,1.01-1.44,1.79-.35,.78-.52,1.68-.52,2.72s.18,1.97,.54,2.76,.86,1.4,1.49,1.83,1.36,.64,2.18,.64,1.45-.21,1.99-.64,1.04-1.13,1.52-2.11c0-.03,.04-.05,.1-.03,.06,.01,.08,.03,.08,.07l-.26,2.12c-.02,.14-.05,.23-.07,.27-.02,.04-.08,.08-.19,.13-1.05,.38-2.11,.56-3.18,.56-1.22,0-2.31-.23-3.27-.69-.96-.46-1.72-1.11-2.27-1.94-.55-.83-.82-1.78-.82-2.84s.28-2.05,.85-2.9c.56-.85,1.34-1.51,2.32-1.99,.99-.48,2.09-.72,3.29-.72,.54,0,1.08,.04,1.64,.13Z"/><path class="cls-2" d="M390.68,111.63c-.19-.19-.28-.44-.28-.76,0-.3,.09-.54,.28-.72,.19-.18,.44-.27,.76-.27s.57,.09,.74,.27c.18,.18,.27,.42,.27,.73,0,.33-.09,.59-.27,.77-.18,.18-.43,.27-.74,.27s-.57-.09-.76-.28Z"/></g><g class="cls-1"><path class="cls-2" d="M89.11,73.37c-6.79-3.43-12-8.1-15.63-14-3.64-5.9-5.45-12.44-5.45-19.63,0-7.67,2.04-14.54,6.12-20.6,4.08-6.06,9.71-10.76,16.9-14.12,7.19-3.35,15.27-5.03,24.24-5.03,3.88,0,7.76,.3,11.63,.91,3.88,.61,6.99,1.39,9.33,2.36,.89,.32,1.39,.59,1.51,.79,.12,.2,.22,.87,.3,2l1.57,16.84c0,.24-.22,.41-.67,.48-.44,.08-.71-.04-.79-.36-1.05-2.67-2.75-5.57-5.09-8.72-2.34-3.15-5.41-5.9-9.21-8.24-3.8-2.34-8.2-3.51-13.21-3.51s-9.9,1.41-14.18,4.24c-4.28,2.83-7.65,6.87-10.12,12.12-2.46,5.25-3.7,11.35-3.7,18.3,0,7.59,1.43,14.38,4.3,20.36,2.87,5.98,6.85,10.62,11.94,13.94,5.09,3.31,10.82,4.97,17.21,4.97,3.31,0,5.86-.36,7.63-1.09,1.77-.73,3.07-2.14,3.88-4.24,.81-2.1,1.21-5.21,1.21-9.33s-.24-7.13-.73-8.78c-.48-1.66-1.51-2.77-3.09-3.33-1.57-.56-4.34-.85-8.3-.85-.48,0-.73-.32-.73-.97,0-.24,.06-.46,.18-.67,.12-.2,.26-.3,.42-.3,6.87,.41,12.44,.61,16.72,.61s8.4-.12,12.85-.36c.32,0,.5,.28,.54,.85,.04,.57-.14,.85-.54,.85-1.45-.08-2.48,.18-3.09,.79-.61,.61-.99,1.84-1.15,3.7-.16,1.86-.24,5.09-.24,9.69,0,3.64,.14,6.22,.42,7.76,.28,1.54,.42,2.51,.42,2.91,0,.48-.08,.81-.24,.97s-.53,.32-1.09,.48c-10.42,2.26-19.79,3.39-28.11,3.39-9.21,0-17.21-1.72-23.99-5.15Z"/><path class="cls-2" d="M218.83,.91c3.92,.61,7.05,1.39,9.39,2.36,.73,.24,1.19,.55,1.39,.91,.2,.36,.34,.99,.43,1.88l1.58,16.84c0,.24-.2,.41-.61,.48-.41,.08-.69-.04-.85-.36-2.26-6.62-5.5-11.69-9.7-15.21-4.2-3.51-9.25-5.27-15.15-5.27-5.5,0-10.4,1.48-14.72,4.42-4.32,2.95-7.71,7.17-10.18,12.66-2.47,5.49-3.7,11.92-3.7,19.27s1.27,13.96,3.82,19.57c2.54,5.62,6.06,9.94,10.54,12.97,4.48,3.03,9.63,4.54,15.45,4.54s10.26-1.51,14.06-4.54c3.8-3.03,7.39-8.02,10.78-14.97,.08-.24,.32-.32,.73-.24,.4,.08,.6,.24,.6,.48l-1.82,15.03c-.16,.97-.32,1.6-.48,1.88-.16,.28-.61,.59-1.33,.91-7.43,2.67-14.95,4-22.54,4-8.64,0-16.38-1.64-23.21-4.91-6.83-3.27-12.18-7.86-16.06-13.75-3.88-5.9-5.82-12.6-5.82-20.12s2-14.52,6-20.54c4-6.02,9.49-10.72,16.48-14.12,6.99-3.39,14.76-5.09,23.33-5.09,3.8,0,7.65,.3,11.57,.91Z"/><path class="cls-2" d="M306.2,.91c3.92,.61,7.05,1.39,9.39,2.36,.73,.24,1.19,.55,1.39,.91,.2,.36,.34,.99,.43,1.88l1.58,16.84c0,.24-.2,.41-.61,.48-.41,.08-.69-.04-.85-.36-2.26-6.62-5.5-11.69-9.7-15.21s-9.25-5.27-15.15-5.27c-5.5,0-10.4,1.48-14.72,4.42-4.32,2.95-7.72,7.17-10.18,12.66-2.47,5.49-3.7,11.92-3.7,19.27s1.27,13.96,3.82,19.57c2.55,5.62,6.06,9.94,10.54,12.97,4.48,3.03,9.63,4.54,15.45,4.54s10.26-1.51,14.06-4.54c3.8-3.03,7.39-8.02,10.78-14.97,.08-.24,.32-.32,.73-.24,.4,.08,.6,.24,.6,.48l-1.82,15.03c-.16,.97-.32,1.6-.48,1.88-.16,.28-.61,.59-1.33,.91-7.43,2.67-14.95,4-22.54,4-8.64,0-16.38-1.64-23.21-4.91-6.83-3.27-12.18-7.86-16.05-13.75-3.88-5.9-5.82-12.6-5.82-20.12s2-14.52,6-20.54c4-6.02,9.49-10.72,16.48-14.12s14.76-5.09,23.33-5.09c3.8,0,7.65,.3,11.57,.91Z"/></g></g></svg>