<?xml version="1.0" encoding="UTF-8"?><svg id="_イヤー_2" xmlns="http://www.w3.org/2000/svg" xmlns:xlink="http://www.w3.org/1999/xlink" viewBox="0 0 243.86 78.48"><defs><style>.cls-1{fill:url(#_称未設定グラデーション_193);}.cls-2{fill:url(#_称未設定グラデーション_250);}.cls-2,.cls-3,.cls-4,.cls-5,.cls-6,.cls-7,.cls-8{opacity:.9;}.cls-9{fill:url(#_称未設定グラデーション_83);}.cls-9,.cls-10,.cls-11,.cls-12,.cls-13,.cls-14,.cls-15{opacity:.5;}.cls-16{fill:#fff;}.cls-17{fill:url(#_称未設定グラデーション_101-3);}.cls-10{fill:url(#_称未設定グラデーション_83-2);}.cls-11{fill:url(#_称未設定グラデーション_143);}.cls-18{fill:url(#_称未設定グラデーション_129);}.cls-3{fill:url(#_称未設定グラデーション_69);}.cls-4{fill:url(#_称未設定グラデーション_125);}.cls-19{fill:url(#_称未設定グラデーション_101);}.cls-12{fill:url(#_称未設定グラデーション_214);}.cls-13{fill:url(#_称未設定グラデーション_172);}.cls-20{fill:#e60012;filter:url(#drop-shadow-1);}.cls-21{fill:#002934;filter:url(#drop-shadow-7);}.cls-22{fill:url(#_称未設定グラデーション_190);}.cls-23{fill:#004098;filter:url(#drop-shadow-6);}.cls-24{fill:#00a0da;filter:url(#drop-shadow-4);}.cls-5{fill:url(#_称未設定グラデーション_67);}.cls-25{fill:#fabe00;filter:url(#drop-shadow-2);}.cls-6{fill:url(#_称未設定グラデーション_189);}.cls-26{fill:url(#_称未設定グラデーション_101-7);}.cls-27{fill:url(#_称未設定グラデーション_101-2);}.cls-14{fill:url(#_称未設定グラデーション_262);}.cls-28{fill:#00a73c;filter:url(#drop-shadow-3);}.cls-7{fill:url(#_称未設定グラデーション_3);}.cls-29{fill:url(#_称未設定グラデーション_101-4);}.cls-30{fill:url(#_称未設定グラデーション_62);}.cls-31{fill:#efea3a;filter:url(#drop-shadow-5);}.cls-15{fill:url(#_称未設定グラデーション_72);}.cls-32{fill:url(#_称未設定グラデーション_315);}.cls-33{fill:url(#_称未設定グラデーション_229);}.cls-34{fill:url(#_称未設定グラデーション_101-6);}.cls-35{fill:url(#linear-gradient);}.cls-36{fill:url(#_称未設定グラデーション_101-5);}.cls-37{fill:#332d28;}.cls-38{fill:url(#_称未設定グラデーション_94);}.cls-8{fill:url(#_称未設定グラデーション_112);}</style><linearGradient id="linear-gradient" x1="-500.57" y1="1135.11" x2="-487.99" y2="1128.68" gradientTransform="translate(514.17 -1113.74)" gradientUnits="userSpaceOnUse"><stop offset=".31" stop-color="#d3def1"/><stop offset=".38" stop-color="#cfdaef"/><stop offset=".44" stop-color="#c4cee8"/><stop offset=".51" stop-color="#b3bbde"/><stop offset=".55" stop-color="#a4abd6"/></linearGradient><filter id="drop-shadow-1" filterUnits="userSpaceOnUse"><feOffset dx="1.42" dy="1.42"/><feGaussianBlur result="blur" stdDeviation="1.42"/><feFlood flood-color="#040000" flood-opacity=".5"/><feComposite in2="blur" operator="in"/><feComposite in="SourceGraphic"/></filter><linearGradient id="_称未設定グラデーション_214" x1="42.03" y1="-93.1" x2="42.03" y2="-103.74" gradientTransform="translate(2.33 108.54) rotate(2.18)" gradientUnits="userSpaceOnUse"><stop offset="0" stop-color="#fff"/><stop offset="1" stop-color="#ea5532"/></linearGradient><radialGradient id="_称未設定グラデーション_229" cx="-837.4" cy="-4903.81" fx="-837.4" fy="-4903.81" r="35.9" gradientTransform="translate(142.49 728.11) rotate(2.18) scale(.15)" gradientUnits="userSpaceOnUse"><stop offset=".85" stop-color="#ea5532"/><stop offset=".88" stop-color="#e14a2b"/><stop offset=".93" stop-color="#ca2e1b"/><stop offset="1" stop-color="#a50101"/><stop offset="1" stop-color="#a40000"/></radialGradient><linearGradient id="_称未設定グラデーション_101" x1="42.03" y1="-100.01" x2="42.03" y2="-103.74" gradientTransform="translate(-53.67 -33.69) rotate(90)" gradientUnits="userSpaceOnUse"><stop offset="0" stop-color="#fff" stop-opacity="0"/><stop offset=".12" stop-color="#fff" stop-opacity=".02"/><stop offset=".25" stop-color="#fff" stop-opacity=".07"/><stop offset=".37" stop-color="#fff" stop-opacity=".15"/><stop offset=".5" stop-color="#fff" stop-opacity=".26"/><stop offset=".63" stop-color="#fff" stop-opacity=".41"/><stop offset=".76" stop-color="#fff" stop-opacity=".59"/><stop offset=".89" stop-color="#fff" stop-opacity=".8"/><stop offset="1" stop-color="#fff"/></linearGradient><linearGradient id="_称未設定グラデーション_250" x1="42.03" y1="-93.1" x2="42.03" y2="-98.77" gradientTransform="translate(2.33 108.54) rotate(2.18)" gradientUnits="userSpaceOnUse"><stop offset="0" stop-color="#fff"/><stop offset=".12" stop-color="#f9c5ca"/><stop offset=".28" stop-color="#f28089"/><stop offset=".42" stop-color="#ed4956"/><stop offset=".54" stop-color="#e92131"/><stop offset=".64" stop-color="#e6081a"/><stop offset=".7" stop-color="#e60012"/></linearGradient><filter id="drop-shadow-2" filterUnits="userSpaceOnUse"><feOffset dx="1.42" dy="1.42"/><feGaussianBlur result="blur-2" stdDeviation="1.42"/><feFlood flood-color="#040000" flood-opacity=".5"/><feComposite in2="blur-2" operator="in"/><feComposite in="SourceGraphic"/></filter><linearGradient id="_称未設定グラデーション_83" x1="55.42" y1="-81.26" x2="55.42" y2="-94.03" gradientTransform="translate(2.62 107.98) rotate(2.18)" gradientUnits="userSpaceOnUse"><stop offset="0" stop-color="#fff100"/><stop offset="1" stop-color="#fabe00"/></linearGradient><radialGradient id="_称未設定グラデーション_94" cx="-2340.58" cy="-4829.63" fx="-2340.58" fy="-4829.63" r="43.08" gradientTransform="translate(374.32 736.38) rotate(2.18) scale(.15)" gradientUnits="userSpaceOnUse"><stop offset=".85" stop-color="#fabe00"/><stop offset=".89" stop-color="#efb800"/><stop offset=".95" stop-color="#d3a900"/><stop offset="1" stop-color="#b99b00"/></radialGradient><linearGradient id="_称未設定グラデーション_101-2" x1="55.42" y1="-89.55" x2="55.42" y2="-94.03" gradientTransform="translate(-30.29 -37.06) rotate(90)" xlink:href="#_称未設定グラデーション_101"/><linearGradient id="_称未設定グラデーション_112" x1="55.42" y1="-81.26" x2="55.42" y2="-88.07" gradientTransform="translate(2.62 107.98) rotate(2.18)" gradientUnits="userSpaceOnUse"><stop offset="0" stop-color="#fff"/><stop offset=".09" stop-color="#fdf0c5"/><stop offset=".2" stop-color="#fcde80"/><stop offset=".3" stop-color="#fbd049"/><stop offset=".39" stop-color="#fac621"/><stop offset=".46" stop-color="#fac008"/><stop offset=".5" stop-color="#fabe00"/><stop offset="1" stop-color="#f39800"/></linearGradient><filter id="drop-shadow-3" filterUnits="userSpaceOnUse"><feOffset dx="1.42" dy="1.42"/><feGaussianBlur result="blur-3" stdDeviation="1.42"/><feFlood flood-color="#040000" flood-opacity=".5"/><feComposite in2="blur-3" operator="in"/><feComposite in="SourceGraphic"/></filter><linearGradient id="_称未設定グラデーション_262" x1="54.47" y1="71.04" x2="54.47" y2="54.01" gradientTransform="matrix(1, 0, 0, 1, 0, 0)" gradientUnits="userSpaceOnUse"><stop offset="0" stop-color="#fff"/><stop offset="1" stop-color="#8fc31f"/></linearGradient><radialGradient id="_称未設定グラデーション_315" cx="-1549.44" cy="-3795.67" fx="-1549.44" fy="-3795.67" r="57.44" gradientTransform="translate(279.5 613.79) scale(.15)" gradientUnits="userSpaceOnUse"><stop offset=".85" stop-color="#6fba2c"/><stop offset=".89" stop-color="#64b22e"/><stop offset=".95" stop-color="#489e33"/><stop offset="1" stop-color="#2c893a"/></radialGradient><linearGradient id="_称未設定グラデーション_101-3" x1="54.47" y1="59.98" x2="54.47" y2="54.01" gradientTransform="matrix(1, 0, 0, 1, 0, 0)" xlink:href="#_称未設定グラデーション_101"/><linearGradient id="_称未設定グラデーション_67" x1="54.47" y1="71.04" x2="54.47" y2="61.96" gradientTransform="matrix(1, 0, 0, 1, 0, 0)" gradientUnits="userSpaceOnUse"><stop offset="0" stop-color="#fff"/><stop offset=".02" stop-color="#f6faf1"/><stop offset=".15" stop-color="#c6e3ac"/><stop offset=".27" stop-color="#a0d175"/><stop offset=".37" stop-color="#85c44d"/><stop offset=".45" stop-color="#75bc34"/><stop offset=".5" stop-color="#6fba2c"/><stop offset="1" stop-color="#2c893a"/></linearGradient><filter id="drop-shadow-4" filterUnits="userSpaceOnUse"><feOffset dx="1.42" dy="1.42"/><feGaussianBlur result="blur-4" stdDeviation="1.42"/><feFlood flood-color="#040000" flood-opacity=".5"/><feComposite in2="blur-4" operator="in"/><feComposite in="SourceGraphic"/></filter><linearGradient id="_称未設定グラデーション_143" x1="27.72" y1="71.91" x2="27.72" y2="52.75" gradientTransform="translate(.64 .37)" gradientUnits="userSpaceOnUse"><stop offset="0" stop-color="#fff"/><stop offset="1" stop-color="#00afec"/></linearGradient><radialGradient id="_称未設定グラデーション_190" cx="-138.24" cy="-3797.01" fx="-138.24" fy="-3797.01" r="64.63" gradientTransform="translate(48.44 614.16) scale(.15)" gradientUnits="userSpaceOnUse"><stop offset=".85" stop-color="#00a0e9"/><stop offset=".89" stop-color="#0096de"/><stop offset=".95" stop-color="#007dc2"/><stop offset="1" stop-color="#0069ac"/></radialGradient><linearGradient id="_称未設定グラデーション_101-4" x1="27.72" y1="59.47" x2="27.72" y2="52.75" gradientTransform="translate(.64 .37)" xlink:href="#_称未設定グラデーション_101"/><linearGradient id="_称未設定グラデーション_3" x1="27.72" y1="71.91" x2="27.72" y2="61.69" gradientTransform="translate(.64 .37)" gradientUnits="userSpaceOnUse"><stop offset="0" stop-color="#fff"/><stop offset=".12" stop-color="#c5e2f3"/><stop offset=".28" stop-color="#80c0e5"/><stop offset=".42" stop-color="#49a5da"/><stop offset=".54" stop-color="#2191d2"/><stop offset=".64" stop-color="#0885cd"/><stop offset=".7" stop-color="#0081cc"/></linearGradient><filter id="drop-shadow-5" filterUnits="userSpaceOnUse"><feOffset dx="1.42" dy="1.42"/><feGaussianBlur result="blur-5" stdDeviation="1.42"/><feFlood flood-color="#040000" flood-opacity=".5"/><feComposite in2="blur-5" operator="in"/><feComposite in="SourceGraphic"/></filter><linearGradient id="_称未設定グラデーション_83-2" x1="67.7" y1="50.39" x2="67.7" y2="35.49" gradientTransform="matrix(1, 0, 0, 1, 0, 0)" xlink:href="#_称未設定グラデーション_83"/><radialGradient id="_称未設定グラデーション_62" cx="-2256.05" cy="-3930.54" fx="-2256.05" fy="-3930.54" r="50.26" gradientTransform="translate(395.36 613.79) scale(.15)" gradientUnits="userSpaceOnUse"><stop offset=".85" stop-color="#fff100"/><stop offset=".89" stop-color="#f4e900"/><stop offset=".95" stop-color="#d8d500"/><stop offset="1" stop-color="#bdc200"/></radialGradient><linearGradient id="_称未設定グラデーション_101-5" x1="67.7" y1="40.71" x2="67.7" y2="35.49" gradientTransform="matrix(1, 0, 0, 1, 0, 0)" xlink:href="#_称未設定グラデーション_101"/><linearGradient id="_称未設定グラデーション_125" x1="67.7" y1="50.39" x2="67.7" y2="42.44" gradientTransform="matrix(1, 0, 0, 1, 0, 0)" gradientUnits="userSpaceOnUse"><stop offset="0" stop-color="#fff"/><stop offset=".09" stop-color="#fffbc5"/><stop offset=".2" stop-color="#fff880"/><stop offset=".3" stop-color="#fff549"/><stop offset=".39" stop-color="#fff221"/><stop offset=".46" stop-color="#fff108"/><stop offset=".5" stop-color="#fff100"/><stop offset="1" stop-color="#fff100"/></linearGradient><filter id="drop-shadow-6" filterUnits="userSpaceOnUse"><feOffset dx="1.42" dy="1.42"/><feGaussianBlur result="blur-6" stdDeviation="1.42"/><feFlood flood-color="#040000" flood-opacity=".5"/><feComposite in2="blur-6" operator="in"/><feComposite in="SourceGraphic"/></filter><linearGradient id="_称未設定グラデーション_72" x1="27.08" y1="26.51" x2="27.08" y2="3.1" gradientTransform="matrix(1, 0, 0, 1, 0, 0)" gradientUnits="userSpaceOnUse"><stop offset="0" stop-color="#fff"/><stop offset="1" stop-color="#005bac"/></linearGradient><radialGradient id="_称未設定グラデーション_129" cx="655.05" cy="-4124.24" fx="655.05" fy="-4124.24" r="78.99" gradientTransform="translate(-68.05 613.79) scale(.15)" gradientUnits="userSpaceOnUse"><stop offset=".85" stop-color="#00479d"/><stop offset=".88" stop-color="#044392"/><stop offset=".94" stop-color="#0f3a76"/><stop offset="1" stop-color="#1e2e53"/></radialGradient><linearGradient id="_称未設定グラデーション_101-6" x1="27.08" y1="11.31" x2="27.08" y2="3.1" gradientTransform="matrix(1, 0, 0, 1, 0, 0)" xlink:href="#_称未設定グラデーション_101"/><linearGradient id="_称未設定グラデーション_69" x1="27.08" y1="26.51" x2="27.08" y2="14.02" gradientTransform="matrix(1, 0, 0, 1, 0, 0)" gradientUnits="userSpaceOnUse"><stop offset="0" stop-color="#fff"/><stop offset=".09" stop-color="#c5d4e7"/><stop offset=".2" stop-color="#80a0cb"/><stop offset=".3" stop-color="#4976b5"/><stop offset=".39" stop-color="#2158a5"/><stop offset=".46" stop-color="#08469b"/><stop offset=".5" stop-color="#004098"/><stop offset="1" stop-color="#1e2e53"/></linearGradient><filter id="drop-shadow-7" filterUnits="userSpaceOnUse"><feOffset dx="1.42" dy="1.42"/><feGaussianBlur result="blur-7" stdDeviation="1.42"/><feFlood flood-color="#040000" flood-opacity=".5"/><feComposite in2="blur-7" operator="in"/><feComposite in="SourceGraphic"/></filter><linearGradient id="_称未設定グラデーション_172" x1="14.4" y1="49.29" x2="14.4" y2="28.01" gradientTransform="matrix(1, 0, 0, 1, 0, 0)" gradientUnits="userSpaceOnUse"><stop offset="0" stop-color="#fff"/><stop offset="1" stop-color="#595757"/></linearGradient><radialGradient id="_称未設定グラデーション_193" cx="-229.99" cy="-3958.55" fx="-229.99" fy="-3958.55" r="71.81" gradientTransform="translate(47.8 613.79) scale(.15)" gradientUnits="userSpaceOnUse"><stop offset=".85" stop-color="#727171"/><stop offset=".88" stop-color="#696666"/><stop offset=".93" stop-color="#514c4a"/><stop offset=".99" stop-color="#2a201d"/><stop offset="1" stop-color="#231815"/></radialGradient><linearGradient id="_称未設定グラデーション_101-7" x1="14.4" y1="35.69" x2="14.4" y2="28.23" gradientTransform="matrix(1, 0, 0, 1, 0, 0)" xlink:href="#_称未設定グラデーション_101"/><linearGradient id="_称未設定グラデーション_189" x1="14.4" y1="49.32" x2="14.4" y2="37.96" gradientTransform="matrix(1, 0, 0, 1, 0, 0)" gradientUnits="userSpaceOnUse"><stop offset="0" stop-color="#fff"/><stop offset=".21" stop-color="#d1d1d1"/><stop offset=".42" stop-color="#aaa"/><stop offset=".6" stop-color="#919191"/><stop offset=".7" stop-color="#898989"/></linearGradient></defs><g id="_ラー調整"><g><path class="cls-35" d="M16.93,16.46C8.42,13.33,.87,12.55,.07,14.73c-.8,2.18,5.44,6.49,13.95,9.63,8.51,3.13,16.06,3.91,16.86,1.73,.8-2.18-5.44-6.49-13.95-9.63Zm10.12,8.21c-.6,1.64-6.27,1.06-12.67-1.3-6.39-2.36-11.08-5.59-10.48-7.23,.6-1.64,6.27-1.06,12.67,1.3,6.39,2.36,11.08,5.59,10.48,7.23Z"/><g><circle class="cls-20" cx="48.07" cy="11.79" r="5.43"/><circle class="cls-12" cx="48.07" cy="11.79" r="5.32"/><circle class="cls-33" cx="48.07" cy="11.79" r="5.21"/><ellipse class="cls-19" cx="48.2" cy="8.34" rx="1.87" ry="2.86" transform="translate(38.04 56.19) rotate(-87.82)"/><path class="cls-2" d="M48.08,11.57c-3.4-.13-5.1,.74-5.14,1.66,.61,2.17,2.56,3.79,4.93,3.88,2.37,.09,4.44-1.38,5.21-3.5,.03-.92-1.6-1.91-5-2.04Z"/></g><g><circle class="cls-25" cx="61.34" cy="22.51" r="6.52"/><circle class="cls-9" cx="61.34" cy="22.51" r="6.38"/><circle class="cls-38" cx="61.34" cy="22.51" r="6.26"/><ellipse class="cls-27" cx="61.5" cy="18.36" rx="2.24" ry="3.43" transform="translate(40.8 79.12) rotate(-87.82)"/><path class="cls-8" d="M61.35,22.24c-4.08-.16-6.12,.89-6.16,1.99,.73,2.6,3.07,4.55,5.91,4.66,2.84,.11,5.32-1.66,6.25-4.2,.04-1.1-1.92-2.3-5.99-2.45Z"/></g><g><circle class="cls-28" cx="54.47" cy="62.53" r="8.69"/><circle class="cls-14" cx="54.47" cy="62.53" r="8.51"/><circle class="cls-32" cx="54.47" cy="62.53" r="8.34"/><ellipse class="cls-17" cx="54.47" cy="57" rx="4.58" ry="2.98"/><path class="cls-5" d="M54.47,62.17c-5.44,0-8.11,1.5-8.11,2.96,1.1,3.43,4.32,5.91,8.11,5.91s7.01-2.48,8.11-5.91c0-1.47-2.67-2.96-8.11-2.96Z"/></g><g><circle class="cls-24" cx="28.36" cy="62.7" r="9.77"/><circle class="cls-11" cx="28.36" cy="62.7" r="9.58"/><circle class="cls-22" cx="28.36" cy="62.7" r="9.39"/><ellipse class="cls-29" cx="28.36" cy="56.48" rx="5.15" ry="3.36"/><path class="cls-7" d="M28.36,62.29c-6.12,0-9.12,1.68-9.13,3.33,1.24,3.86,4.86,6.65,9.13,6.65,4.27,0,7.88-2.79,9.13-6.65,0-1.65-3-3.33-9.13-3.33Z"/></g><g><circle class="cls-31" cx="67.7" cy="42.94" r="7.6"/><circle class="cls-10" cx="67.7" cy="42.94" r="7.45"/><circle class="cls-30" cx="67.7" cy="42.94" r="7.3"/><ellipse class="cls-36" cx="67.7" cy="38.1" rx="4.01" ry="2.61"/><path class="cls-4" d="M67.7,42.62c-4.76,0-7.09,1.31-7.1,2.59,.97,3,3.78,5.17,7.1,5.17s6.13-2.17,7.1-5.17c0-1.28-2.34-2.59-7.1-2.59Z"/></g><g><g><circle class="cls-23" cx="27.08" cy="14.8" r="11.94"/><circle class="cls-15" cx="27.08" cy="14.8" r="11.71"/><circle class="cls-18" cx="27.08" cy="14.8" r="11.47"/><ellipse class="cls-34" cx="27.08" cy="7.2" rx="6.29" ry="4.1"/><path class="cls-3" d="M27.08,14.31c-7.48,0-11.15,2.06-11.15,4.07,1.52,4.71,5.94,8.13,11.15,8.13s9.64-3.41,11.15-8.13c0-2.02-3.67-4.07-11.15-4.07Z"/></g><path class="cls-16" d="M24.14,19.85c-1.16-.52-2.05-1.22-2.67-2.12-.62-.89-.93-1.88-.93-2.97,0-1.16,.35-2.2,1.04-3.11,.7-.92,1.66-1.63,2.88-2.13,1.23-.51,2.6-.76,4.13-.76,.66,0,1.32,.05,1.98,.14,.66,.09,1.19,.21,1.59,.36,.15,.05,.24,.09,.26,.12,.02,.03,.04,.13,.05,.3l.27,2.55s-.04,.06-.11,.07c-.08,.01-.12,0-.13-.05-.18-.4-.47-.84-.87-1.32-.4-.48-.92-.89-1.57-1.25-.65-.35-1.4-.53-2.25-.53s-1.69,.21-2.42,.64c-.73,.43-1.31,1.04-1.73,1.83-.42,.79-.63,1.72-.63,2.77,0,1.15,.24,2.17,.73,3.08,.49,.9,1.17,1.61,2.04,2.11,.87,.5,1.85,.75,2.94,.75,.56,0,1-.06,1.3-.16s.52-.32,.66-.64c.14-.32,.21-.79,.21-1.41s-.04-1.08-.12-1.33c-.08-.25-.26-.42-.53-.5-.27-.09-.74-.13-1.42-.13-.08,0-.12-.05-.12-.15,0-.04,.01-.07,.03-.1,.02-.03,.05-.05,.07-.05,1.17,.06,2.12,.09,2.85,.09s1.43-.02,2.19-.06c.06,0,.09,.04,.09,.13,0,.09-.02,.13-.09,.13-.25-.01-.42,.03-.53,.12-.1,.09-.17,.28-.2,.56-.03,.28-.04,.77-.04,1.47,0,.55,.02,.94,.07,1.17,.05,.23,.07,.38,.07,.44,0,.07-.01,.12-.04,.15s-.09,.05-.19,.07c-1.78,.34-3.38,.51-4.8,.51-1.57,0-2.94-.26-4.09-.78Z"/></g><g><circle class="cls-21" cx="14.4" cy="38.87" r="10.86"/><circle class="cls-13" cx="14.4" cy="38.65" r="10.64"/><circle class="cls-1" cx="14.4" cy="38.87" r="10.43"/><ellipse class="cls-26" cx="14.4" cy="31.96" rx="5.72" ry="3.73"/><path class="cls-6" d="M14.4,38.23c-6.8,0-10.14,1.87-10.14,3.7,1.38,4.29,5.4,7.39,10.14,7.39s8.76-3.1,10.14-7.39c0-1.83-3.34-3.7-10.14-3.7Z"/><path class="cls-6" d="M14.4,38.23c-6.8,0-10.14,1.87-10.14,3.7,1.38,4.29,5.4,7.39,10.14,7.39s8.76-3.1,10.14-7.39c0-1.83-3.34-3.7-10.14-3.7Z"/></g></g><g><path class="cls-37" d="M93.24,54.72c-1.9-.91-3.35-2.14-4.37-3.69-1.02-1.56-1.52-3.28-1.52-5.18,0-2.02,.57-3.84,1.71-5.44,1.14-1.6,2.71-2.84,4.72-3.72,2.01-.88,4.27-1.33,6.77-1.33,1.08,0,2.17,.08,3.25,.24,1.08,.16,1.95,.37,2.61,.62,.25,.09,.39,.16,.42,.21,.03,.05,.06,.23,.08,.53l.44,4.44c0,.06-.06,.11-.19,.13-.12,.02-.2-.01-.22-.1-.29-.7-.77-1.47-1.42-2.3-.66-.83-1.51-1.56-2.57-2.17-1.06-.62-2.29-.93-3.69-.93s-2.76,.37-3.96,1.12c-1.2,.75-2.14,1.81-2.83,3.2-.69,1.39-1.03,2.99-1.03,4.83,0,2,.4,3.79,1.2,5.37,.8,1.58,1.91,2.8,3.33,3.68,1.42,.87,3.02,1.31,4.81,1.31,.93,0,1.64-.1,2.13-.29s.86-.56,1.08-1.12c.22-.55,.34-1.38,.34-2.46s-.07-1.88-.2-2.32c-.13-.44-.42-.73-.86-.88-.44-.15-1.21-.22-2.32-.22-.14,0-.2-.08-.2-.26,0-.06,.02-.12,.05-.18,.03-.05,.07-.08,.12-.08,1.92,.11,3.48,.16,4.67,.16s2.35-.03,3.59-.1c.09,0,.14,.07,.15,.22,.01,.15-.04,.22-.15,.22-.41-.02-.69,.05-.86,.21-.17,.16-.28,.48-.32,.98-.05,.49-.07,1.34-.07,2.56,0,.96,.04,1.64,.12,2.05,.08,.41,.12,.66,.12,.77,0,.13-.02,.21-.07,.26-.05,.04-.15,.09-.3,.13-2.91,.6-5.53,.9-7.86,.9-2.57,0-4.81-.45-6.7-1.36Z"/><path class="cls-37" d="M113.41,54.07c0,.33,.03,.57,.08,.72,.05,.15,.16,.25,.31,.3,.16,.05,.41,.08,.76,.08h.69c1.06,0,1.97-.27,2.74-.8,.77-.53,1.29-1.25,1.54-2.16,0-.03,.03-.04,.08-.04,.03,0,.06,0,.09,.03,.03,.02,.05,.04,.05,.05-.12,1.27-.18,2.32-.18,3.17,0,.1-.02,.18-.07,.22-.05,.04-.12,.07-.23,.07h-9.59s-.04-.04-.04-.12,.01-.11,.04-.11c.43,0,.75-.03,.94-.1,.2-.06,.33-.19,.41-.37,.07-.19,.11-.47,.11-.85v-8.88c0-.38-.04-.67-.11-.84-.07-.18-.21-.3-.42-.37-.2-.07-.51-.11-.93-.11-.03,0-.04-.04-.04-.12s.01-.11,.04-.11l1.04,.02c.62,.03,1.14,.04,1.54,.04s.92-.01,1.54-.04l1.04-.02s.06,.04,.06,.11-.02,.12-.06,.12c-.42,0-.73,.04-.93,.11-.2,.07-.34,.2-.41,.38-.07,.19-.1,.47-.1,.85v8.79Z"/><path class="cls-37" d="M123.42,55.09c-.98-.56-1.74-1.31-2.28-2.26s-.8-1.99-.8-3.12c0-1.32,.35-2.45,1.06-3.39s1.61-1.65,2.71-2.12c1.1-.47,2.23-.71,3.38-.71,1.29,0,2.42,.28,3.39,.85,.98,.57,1.72,1.32,2.25,2.25,.52,.93,.78,1.92,.78,2.97,0,1.16-.32,2.23-.97,3.2s-1.52,1.74-2.61,2.3c-1.09,.56-2.27,.84-3.54,.84s-2.38-.28-3.36-.83Zm6.07-.27c.6-.42,1.07-1.02,1.41-1.82,.34-.8,.51-1.75,.51-2.87,0-1.18-.19-2.23-.57-3.16-.38-.93-.93-1.65-1.64-2.18-.72-.52-1.56-.79-2.52-.79-1.23,0-2.18,.44-2.84,1.31-.66,.88-1,2.1-1,3.67,0,1.24,.2,2.35,.6,3.33,.4,.98,.95,1.74,1.65,2.29s1.49,.82,2.37,.82c.76,0,1.44-.21,2.04-.62Z"/><path class="cls-37" d="M144.12,50.04c.67,.59,1.01,1.32,1.01,2.19,0,.67-.2,1.27-.61,1.8s-.97,.96-1.69,1.28c-.72,.31-1.52,.47-2.4,.47-.38,0-.81-.02-1.3-.06-.19-.01-.42-.03-.7-.04-.28-.01-.59-.02-.92-.02l-1.48,.02c-.27,.01-.64,.02-1.1,.02-.04,0-.06-.04-.06-.12s.02-.11,.06-.11c.39,0,.69-.04,.89-.11s.35-.2,.44-.38,.13-.46,.13-.83v-8.88c0-.54-.1-.89-.29-1.06-.19-.17-.58-.26-1.16-.26-.03,0-.04-.04-.04-.12s.01-.11,.04-.11l1.08,.02c.62,.03,1.12,.04,1.48,.04s.77-.02,1.18-.06c.14-.01,.34-.03,.61-.04s.51-.02,.71-.02c1.23,0,2.19,.21,2.86,.63s1.02,1.04,1.02,1.84c0,.61-.21,1.17-.64,1.67-.43,.5-1.04,.89-1.84,1.17,1.14,.13,2.04,.49,2.71,1.07Zm-5.23-5.71c-.15,.17-.22,.5-.22,.97v3.65l.81,.02c.7,0,1.25-.25,1.62-.75,.38-.5,.57-1.14,.57-1.92,0-.73-.17-1.28-.51-1.66-.34-.38-.83-.57-1.46-.57-.39,0-.66,.09-.81,.26Zm3.86,8.35c0-.98-.25-1.76-.75-2.34-.5-.58-1.26-.86-2.28-.86-.39,0-.75,.01-1.06,.04v4.62c0,.42,.09,.72,.26,.89,.18,.17,.56,.26,1.16,.26,1.77,0,2.66-.87,2.66-2.61Z"/><path class="cls-37" d="M160.03,55.58c0,.08-.03,.12-.1,.12-.27,0-.69-.01-1.26-.04-.6-.03-1.02-.04-1.28-.04-.34,0-.75,.01-1.24,.04-.46,.03-.83,.04-1.1,.04-.05,0-.08-.04-.08-.12s.03-.11,.08-.11c.35,0,.61-.04,.76-.11s.23-.19,.23-.37c0-.22-.13-.58-.41-1.09l-1.38-2.59h-5l-.79,1.67c-.18,.37-.26,.72-.26,1.04,0,.46,.17,.82,.52,1.07,.34,.26,.81,.38,1.39,.38,.07,0,.1,.04,.1,.11s-.03,.12-.1,.12c-.24,0-.6-.01-1.06-.04-.51-.03-.96-.04-1.34-.04s-.81,.01-1.32,.04c-.46,.03-.83,.04-1.12,.04-.05,0-.08-.04-.08-.12s.03-.11,.08-.11c.38,0,.7-.07,.95-.22,.26-.15,.51-.41,.77-.79,.26-.38,.56-.94,.91-1.68l4.41-9.15s.09-.06,.18-.06c.11,0,.17,.02,.18,.06l5.08,9.44c.47,.91,.87,1.53,1.18,1.88s.64,.52,.97,.52c.07,0,.1,.04,.1,.11Zm-10.5-4.81h4.43l-2.34-4.37-2.09,4.37Z"/><path class="cls-37" d="M163.42,54.07c0,.33,.03,.57,.08,.72,.05,.15,.16,.25,.31,.3,.16,.05,.41,.08,.76,.08h.69c1.06,0,1.97-.27,2.74-.8,.77-.53,1.29-1.25,1.54-2.16,0-.03,.03-.04,.08-.04,.03,0,.06,0,.09,.03,.03,.02,.05,.04,.05,.05-.12,1.27-.18,2.32-.18,3.17,0,.1-.02,.18-.07,.22-.05,.04-.12,.07-.23,.07h-9.59s-.04-.04-.04-.12,.01-.11,.04-.11c.43,0,.75-.03,.94-.1,.2-.06,.33-.19,.41-.37,.07-.19,.11-.47,.11-.85v-8.88c0-.38-.04-.67-.11-.84-.07-.18-.21-.3-.42-.37-.2-.07-.51-.11-.93-.11-.03,0-.04-.04-.04-.12s.01-.11,.04-.11l1.04,.02c.62,.03,1.14,.04,1.54,.04s.92-.01,1.54-.04l1.04-.02s.06,.04,.06,.11-.02,.12-.06,.12c-.42,0-.73,.04-.93,.11-.2,.07-.34,.2-.41,.38-.07,.19-.1,.47-.1,.85v8.79Z"/><path class="cls-37" d="M176.91,54.72c-1.9-.91-3.35-2.14-4.37-3.69-1.02-1.56-1.52-3.28-1.52-5.18,0-2.02,.57-3.84,1.71-5.44,1.14-1.6,2.71-2.84,4.72-3.72,2.01-.88,4.27-1.33,6.77-1.33,1.08,0,2.17,.08,3.25,.24,1.08,.16,1.95,.37,2.61,.62,.25,.09,.39,.16,.42,.21,.03,.05,.06,.23,.08,.53l.44,4.44c0,.06-.06,.11-.19,.13-.12,.02-.2-.01-.22-.1-.29-.7-.77-1.47-1.42-2.3-.66-.83-1.51-1.56-2.57-2.17-1.06-.62-2.29-.93-3.69-.93s-2.76,.37-3.96,1.12c-1.2,.75-2.14,1.81-2.83,3.2-.69,1.39-1.03,2.99-1.03,4.83,0,2,.4,3.79,1.2,5.37,.8,1.58,1.91,2.8,3.33,3.68,1.42,.87,3.02,1.31,4.81,1.31,.93,0,1.64-.1,2.13-.29s.86-.56,1.08-1.12c.22-.55,.34-1.38,.34-2.46s-.07-1.88-.2-2.32c-.13-.44-.42-.73-.86-.88-.44-.15-1.21-.22-2.32-.22-.14,0-.2-.08-.2-.26,0-.06,.02-.12,.05-.18,.03-.05,.07-.08,.12-.08,1.92,.11,3.48,.16,4.67,.16s2.35-.03,3.59-.1c.09,0,.14,.07,.15,.22,.01,.15-.04,.22-.15,.22-.41-.02-.69,.05-.86,.21-.17,.16-.28,.48-.32,.98-.05,.49-.07,1.34-.07,2.56,0,.96,.04,1.64,.12,2.05,.08,.41,.12,.66,.12,.77,0,.13-.02,.21-.07,.26-.05,.04-.15,.09-.3,.13-2.91,.6-5.53,.9-7.86,.9-2.57,0-4.81-.45-6.7-1.36Z"/><path class="cls-37" d="M207.17,55.58c0,.08-.01,.12-.04,.12h-3.62c-.3,0-.85-.51-1.67-1.52s-1.79-2.44-2.95-4.27c-.11,.01-.26,.02-.47,.02-.53,0-.9,0-1.12-.02v4.24c0,.4,.03,.68,.1,.86,.07,.18,.2,.3,.4,.36,.2,.06,.51,.1,.94,.1,.03,0,.04,.04,.04,.11s-.01,.12-.04,.12c-.45,0-.8,0-1.06-.02l-1.54-.02-1.48,.02c-.27,.01-.64,.02-1.1,.02-.04,0-.06-.04-.06-.12s.02-.11,.06-.11c.43,0,.75-.03,.94-.1,.2-.06,.33-.19,.41-.37,.07-.19,.11-.47,.11-.85v-8.88c0-.38-.03-.67-.1-.84-.07-.18-.2-.3-.41-.37-.2-.07-.52-.11-.93-.11-.03,0-.04-.04-.04-.12s.01-.11,.04-.11l1.08,.02c.62,.03,1.12,.04,1.48,.04,.46,0,.94-.02,1.44-.06,.18-.01,.4-.03,.66-.04,.26-.01,.56-.02,.88-.02,1.23,0,2.19,.21,2.86,.64,.68,.43,1.02,1.03,1.02,1.79,0,.7-.2,1.34-.61,1.91-.41,.57-.95,1.03-1.62,1.37,1.08,1.53,1.99,2.74,2.72,3.61,.73,.87,1.38,1.5,1.95,1.9,.57,.4,1.12,.59,1.67,.59,.03,0,.04,.04,.04,.11Zm-8.67-6.14c.79,0,1.35-.21,1.7-.62,.34-.42,.52-1.08,.52-2,0-1.05-.16-1.77-.49-2.17s-.79-.59-1.4-.59c-.54,0-.93,.1-1.16,.29s-.35,.51-.35,.96v4.07c.33,.05,.72,.08,1.18,.08Z"/><path class="cls-37" d="M209.23,55.09c-.98-.56-1.74-1.31-2.28-2.26s-.8-1.99-.8-3.12c0-1.32,.35-2.45,1.06-3.39s1.61-1.65,2.71-2.12c1.1-.47,2.23-.71,3.38-.71,1.29,0,2.42,.28,3.39,.85,.98,.57,1.72,1.32,2.25,2.25,.52,.93,.78,1.92,.78,2.97,0,1.16-.32,2.23-.97,3.2s-1.52,1.74-2.61,2.3c-1.09,.56-2.27,.84-3.54,.84s-2.38-.28-3.36-.83Zm6.07-.27c.6-.42,1.07-1.02,1.41-1.82,.34-.8,.51-1.75,.51-2.87,0-1.18-.19-2.23-.57-3.16-.38-.93-.93-1.65-1.64-2.18-.72-.52-1.56-.79-2.52-.79-1.23,0-2.18,.44-2.84,1.31-.66,.88-1,2.1-1,3.67,0,1.24,.2,2.35,.6,3.33,.4,.98,.95,1.74,1.65,2.29s1.49,.82,2.37,.82c.76,0,1.44-.21,2.04-.62Z"/><path class="cls-37" d="M231.01,44.53c-.33-.4-.8-.59-1.39-.59-.03,0-.04-.04-.04-.12s.01-.11,.04-.11l.97,.02c.51,.03,.93,.04,1.24,.04,.26,0,.63-.01,1.12-.04l.93-.02s.04,.04,.04,.11-.01,.12-.04,.12c-.53,0-.94,.2-1.24,.59s-.45,.94-.45,1.63v5.33c0,.9-.21,1.68-.63,2.36s-1.01,1.2-1.78,1.56c-.77,.36-1.65,.55-2.65,.55s-1.89-.18-2.66-.54c-.77-.36-1.38-.88-1.82-1.56-.44-.68-.66-1.49-.66-2.41v-6.2c0-.38-.04-.67-.11-.84-.07-.18-.21-.3-.41-.37-.2-.07-.5-.11-.92-.11-.04,0-.06-.04-.06-.12s.02-.11,.06-.11l1.08,.02c.62,.03,1.12,.04,1.48,.04,.41,0,.92-.01,1.54-.04l1.04-.02s.06,.04,.06,.11-.02,.12-.06,.12c-.42,0-.73,.04-.92,.12s-.33,.21-.41,.39c-.08,.19-.11,.47-.11,.85v5.49c0,1.52,.32,2.65,.96,3.38s1.54,1.09,2.7,1.09,2-.32,2.64-.97c.64-.65,.95-1.57,.95-2.77v-5.35c0-.69-.17-1.23-.5-1.63Z"/><path class="cls-37" d="M237.91,54.96c.09,.19,.27,.32,.54,.39,.26,.08,.69,.12,1.27,.12,.04,0,.06,.04,.06,.11s-.02,.12-.06,.12c-.56,0-.99,0-1.3-.02l-1.77-.02-1.48,.02c-.27,.01-.64,.02-1.1,.02-.04,0-.06-.04-.06-.12s.02-.11,.06-.11c.43,0,.75-.03,.94-.1,.2-.06,.33-.19,.4-.37,.07-.19,.1-.47,.1-.85v-8.88c0-.38-.03-.67-.1-.84-.07-.18-.2-.3-.41-.37-.2-.07-.51-.11-.93-.11-.04,0-.06-.04-.06-.12s.02-.11,.06-.11l1.08,.02c.62,.03,1.12,.04,1.48,.04,.33,0,.71-.02,1.16-.06,.18-.01,.4-.03,.67-.04,.27-.01,.58-.02,.93-.02,1.38,0,2.47,.27,3.27,.81,.8,.54,1.2,1.38,1.2,2.52,0,.79-.22,1.46-.65,2.01-.43,.55-.99,.97-1.68,1.25-.68,.28-1.38,.42-2.1,.42-.37,0-.68-.03-.96-.1-.03,0-.04-.03-.04-.1,0-.04,.01-.08,.03-.11,.02-.04,.04-.05,.07-.04,.2,.05,.43,.08,.69,.08,.62,0,1.14-.27,1.55-.82s.62-1.33,.62-2.34-.23-1.79-.68-2.34c-.45-.55-1.11-.82-1.98-.82-.38,0-.64,.08-.77,.25s-.2,.49-.2,.98v8.77c0,.41,.05,.71,.14,.89Z"/></g></g></svg>